<svg width="2000" height="1000" viewBox="0 0 2000 1000" fill="none" xmlns="http://www.w3.org/2000/svg">
<g clip-path="url(#clip0_3302_520)">
<rect width="2000" height="1000" fill="white"/>
<rect width="2000" height="1000" fill="#2C53B7"/>
<g filter="url(#filter0_f_3302_520)">
<circle cx="1860" r="434" transform="rotate(180 1860 0)" fill="url(#paint0_linear_3302_520)"/>
</g>
<path fill-rule="evenodd" clip-rule="evenodd" d="M1820.04 863.835C1820.03 863.571 1820.02 863.296 1820 863.011C1820 860.137 1820 857.823 1820.16 856.226C1820.48 848.803 1820.56 848.244 1820.56 848.244C1820.8 844.174 1821.28 840.183 1822.07 836.192C1822.55 833.638 1823.27 831.163 1824.23 828.769C1825.18 826.613 1826.62 825.097 1828.77 824.139C1831.33 823.022 1833.96 822.303 1836.59 821.824C1842.89 820.627 1849.27 820.148 1855.73 820.068C1859.07 819.94 1862.4 820.018 1865.69 820.095C1866.5 820.114 1867.3 820.132 1868.1 820.148C1872.8 820.308 1877.43 820.787 1882.05 821.585C1884.93 822.064 1887.8 822.782 1890.51 823.82C1893.22 824.937 1895.05 826.773 1896.09 829.487C1896.81 831.482 1897.37 833.558 1897.85 835.633C1899.28 842.258 1899.76 849.043 1899.92 855.747C1900.08 860.457 1900 865.086 1899.68 869.795C1899.44 874.265 1898.96 878.735 1898.17 883.125C1897.61 885.839 1896.97 888.473 1895.85 891.107C1894.9 893.422 1893.3 895.018 1890.99 895.976C1888.91 896.774 1886.76 897.413 1884.53 897.892C1878.15 899.249 1871.84 899.807 1865.38 899.967C1861.36 900.046 1857.41 899.968 1853.38 899.889L1853.26 899.887C1848.55 899.727 1843.93 899.328 1839.3 898.61C1836.03 898.051 1832.76 897.333 1829.57 896.215C1826.7 895.178 1824.79 893.262 1823.75 890.389C1822.87 887.755 1822.15 885.041 1821.67 882.247C1820.8 877.139 1820.32 872.03 1820.16 866.842C1820.16 865.935 1820.11 864.975 1820.04 863.835ZM1864.2 854.787C1871.73 861.073 1878.87 867.756 1885.84 874.678C1889.85 878.736 1883.6 885.021 1879.43 880.804C1872.86 874.121 1865.97 867.836 1858.83 861.709C1858.31 862.429 1857.78 863.149 1857.26 863.87C1852.37 870.572 1847.37 877.408 1844.41 885.021C1842.24 890.352 1833.67 888.045 1835.75 882.714C1839.28 873.564 1844.81 864.255 1851.3 855.662C1846.57 851.843 1841.6 848.104 1836.63 844.524C1832.07 841.182 1836.47 833.623 1841.2 836.886C1846.57 840.625 1851.78 844.683 1856.83 848.661C1863.16 841.262 1870.29 834.419 1877.42 829.168C1882.07 825.667 1886.56 833.385 1881.99 836.806C1875.18 841.898 1869.41 848.104 1864.2 854.787Z" fill="url(#paint1_linear_3302_520)"/>
<path fill-rule="evenodd" clip-rule="evenodd" d="M1820.04 863.835C1820.03 863.571 1820.02 863.296 1820 863.011C1820 860.137 1820 857.823 1820.16 856.226C1820.48 848.803 1820.56 848.244 1820.56 848.244C1820.8 844.174 1821.28 840.183 1822.07 836.192C1822.55 833.638 1823.27 831.163 1824.23 828.769C1825.18 826.613 1826.62 825.097 1828.77 824.139C1831.33 823.022 1833.96 822.303 1836.59 821.824C1842.89 820.627 1849.27 820.148 1855.73 820.068C1859.07 819.94 1862.4 820.018 1865.69 820.095C1866.5 820.114 1867.3 820.132 1868.1 820.148C1872.8 820.308 1877.43 820.787 1882.05 821.585C1884.93 822.064 1887.8 822.782 1890.51 823.82C1893.22 824.937 1895.05 826.773 1896.09 829.487C1896.81 831.482 1897.37 833.558 1897.85 835.633C1899.28 842.258 1899.76 849.043 1899.92 855.747C1900.08 860.457 1900 865.086 1899.68 869.795C1899.44 874.265 1898.96 878.735 1898.17 883.125C1897.61 885.839 1896.97 888.473 1895.85 891.107C1894.9 893.422 1893.3 895.018 1890.99 895.976C1888.91 896.774 1886.76 897.413 1884.53 897.892C1878.15 899.249 1871.84 899.807 1865.38 899.967C1861.36 900.046 1857.41 899.968 1853.38 899.889L1853.26 899.887C1848.55 899.727 1843.93 899.328 1839.3 898.61C1836.03 898.051 1832.76 897.333 1829.57 896.215C1826.7 895.178 1824.79 893.262 1823.75 890.389C1822.87 887.755 1822.15 885.041 1821.67 882.247C1820.8 877.139 1820.32 872.03 1820.16 866.842C1820.16 865.935 1820.11 864.975 1820.04 863.835ZM1864.2 854.787C1871.73 861.073 1878.87 867.756 1885.84 874.678C1889.85 878.736 1883.6 885.021 1879.43 880.804C1872.86 874.121 1865.97 867.836 1858.83 861.709C1858.31 862.429 1857.78 863.149 1857.26 863.87C1852.37 870.572 1847.37 877.408 1844.41 885.021C1842.24 890.352 1833.67 888.045 1835.75 882.714C1839.28 873.564 1844.81 864.255 1851.3 855.662C1846.57 851.843 1841.6 848.104 1836.63 844.524C1832.07 841.182 1836.47 833.623 1841.2 836.886C1846.57 840.625 1851.78 844.683 1856.83 848.661C1863.16 841.262 1870.29 834.419 1877.42 829.168C1882.07 825.667 1886.56 833.385 1881.99 836.806C1875.18 841.898 1869.41 848.104 1864.2 854.787Z" fill="white"/>
<rect x="689.5" y="253.297" width="631.433" height="468.701" rx="64" fill="white"/>
<rect x="779.342" y="509.258" width="22" height="452.598" rx="11" transform="rotate(-90 779.342 509.258)" fill="url(#paint2_linear_3302_520)"/>
<rect x="779.342" y="559.266" width="22" height="452.598" rx="11" transform="rotate(-90 779.342 559.266)" fill="url(#paint3_linear_3302_520)"/>
<rect x="779.342" y="609.27" width="22" height="452.598" rx="11" transform="rotate(-90 779.342 609.27)" fill="url(#paint4_linear_3302_520)"/>
<rect x="779.342" y="659.277" width="22" height="275.283" rx="11" transform="rotate(-90 779.342 659.277)" fill="url(#paint5_linear_3302_520)"/>
<path d="M942.82 335.116C940.896 327.928 935.246 322.279 928.058 320.354C915.042 316.863 862.826 316.863 862.826 316.863C862.826 316.863 810.611 316.863 797.595 320.354C790.406 322.279 784.757 327.928 782.833 335.116C779.342 348.132 779.342 375.305 779.342 375.305C779.342 375.305 779.342 402.479 782.833 415.495C784.757 422.683 790.406 428.332 797.595 430.256C810.611 433.747 862.826 433.747 862.826 433.747C862.826 433.747 915.042 433.747 928.058 430.256C935.246 428.332 940.896 422.683 942.82 415.495C946.311 402.479 946.311 375.305 946.311 375.305C946.311 375.305 946.297 348.132 942.82 335.116Z" fill="#FF0000"/>
<path d="M846.115 400.351L889.493 375.308L846.115 350.266V400.351Z" fill="white"/>
<path fill-rule="evenodd" clip-rule="evenodd" d="M1247.93 166C1220.85 166 1198.88 187.96 1198.88 215.05V291.438C1198.88 318.528 1220.85 340.488 1247.93 340.488H1324.32C1351.41 340.488 1373.37 318.528 1373.37 291.438V215.05C1373.37 187.96 1351.41 166 1324.32 166H1247.93Z" fill="#05C3FF"/>
<path d="M1334.95 243.337C1336.23 239.694 1336.67 235.835 1336.25 232.018C1335.83 228.201 1334.54 224.513 1332.49 221.201C1326.25 210.929 1313.69 205.646 1301.44 208.128C1298.04 204.56 1293.71 201.9 1288.89 200.413C1284.06 198.926 1278.9 198.665 1273.94 199.657C1268.97 200.649 1264.36 202.859 1260.59 206.064C1256.81 209.269 1253.99 213.357 1252.41 217.917C1248.43 218.688 1244.67 220.253 1241.38 222.508C1238.09 224.762 1235.35 227.654 1233.34 230.989C1227.03 241.244 1228.46 254.18 1236.88 262.978C1235.6 266.619 1235.15 270.477 1235.57 274.294C1235.99 278.112 1237.27 281.801 1239.32 285.114C1245.58 295.389 1258.14 300.672 1270.4 298.186C1273.1 301.056 1276.41 303.348 1280.12 304.911C1283.83 306.474 1287.85 307.271 1291.91 307.25C1304.48 307.26 1315.61 299.596 1319.45 288.291C1323.43 287.519 1327.19 285.953 1330.47 283.699C1333.76 281.445 1336.5 278.554 1338.52 275.219C1344.75 264.982 1343.32 252.116 1334.95 243.337ZM1291.91 300.17C1286.9 300.177 1282.04 298.516 1278.19 295.478L1278.87 295.115L1301.66 282.683C1302.23 282.368 1302.7 281.92 1303.03 281.381C1303.36 280.843 1303.53 280.233 1303.53 279.612V249.244L1313.17 254.512C1313.22 254.534 1313.26 254.567 1313.29 254.608C1313.32 254.649 1313.34 254.696 1313.35 254.746V279.91C1313.33 291.09 1303.74 300.147 1291.91 300.17V300.17ZM1245.82 281.574C1243.31 277.47 1242.4 272.66 1243.27 267.989L1243.95 268.373L1266.77 280.806C1267.33 281.119 1267.97 281.284 1268.63 281.284C1269.28 281.284 1269.93 281.119 1270.49 280.806L1298.37 265.622V276.136C1298.36 276.191 1298.35 276.244 1298.32 276.291C1298.29 276.339 1298.25 276.381 1298.21 276.413L1275.12 288.995C1264.86 294.58 1251.75 291.259 1245.82 281.574ZM1239.82 234.658C1242.35 230.528 1246.35 227.378 1251.1 225.765V251.355C1251.1 251.974 1251.26 252.583 1251.59 253.119C1251.91 253.656 1252.39 254.1 1252.95 254.405L1280.69 269.525L1271.06 274.793C1271 274.819 1270.95 274.833 1270.89 274.833C1270.83 274.833 1270.77 274.819 1270.72 274.793L1247.67 262.231C1237.43 256.624 1233.92 244.247 1239.82 234.551V234.658ZM1318.99 252.038L1291.17 236.769L1300.78 231.523C1300.83 231.497 1300.89 231.483 1300.95 231.483C1301.01 231.483 1301.07 231.497 1301.12 231.523L1324.16 244.105C1327.69 246.026 1330.56 248.855 1332.44 252.26C1334.33 255.666 1335.15 259.508 1334.81 263.338C1334.48 267.168 1332.99 270.828 1330.53 273.891C1328.08 276.954 1324.75 279.294 1320.94 280.636V255.045C1320.92 254.427 1320.73 253.826 1320.39 253.298C1320.05 252.771 1319.57 252.337 1318.99 252.038ZM1328.59 238.411L1327.91 238.027L1305.14 225.488C1304.57 225.173 1303.92 225.007 1303.26 225.007C1302.6 225.007 1301.96 225.173 1301.39 225.488L1273.54 240.671V230.157C1273.53 230.104 1273.54 230.05 1273.57 230.001C1273.59 229.953 1273.63 229.911 1273.67 229.881L1296.72 217.319C1300.25 215.397 1304.29 214.464 1308.36 214.63C1312.43 214.797 1316.37 216.055 1319.71 218.259C1323.06 220.463 1325.67 223.52 1327.24 227.073C1328.81 230.627 1329.28 234.53 1328.59 238.325V238.411ZM1268.28 257.049L1258.64 251.803C1258.59 251.776 1258.55 251.739 1258.52 251.694C1258.49 251.65 1258.47 251.6 1258.46 251.547V226.447C1258.47 222.596 1259.63 218.827 1261.82 215.579C1264.01 212.331 1267.13 209.739 1270.82 208.107C1274.51 206.474 1278.62 205.867 1282.66 206.358C1286.7 206.849 1290.51 208.417 1293.65 210.879L1292.97 211.242L1270.18 223.675C1269.61 223.989 1269.14 224.437 1268.81 224.976C1268.48 225.514 1268.31 226.124 1268.3 226.746L1268.28 257.049ZM1273.52 246.387L1285.93 239.626L1298.37 246.387V259.907L1285.97 266.667L1273.54 259.907L1273.52 246.387Z" fill="white"/>
<path d="M515.548 777.818H525.537L535.156 795.984H535.568L545.187 777.818H555.176L539.79 805.088V820H530.934V805.088L515.548 777.818ZM567.549 820.618C564.35 820.618 561.583 819.938 559.249 818.579C556.928 817.206 555.136 815.297 553.873 812.853C552.61 810.395 551.978 807.546 551.978 804.305C551.978 801.037 552.61 798.181 553.873 795.737C555.136 793.279 556.928 791.371 559.249 790.011C561.583 788.638 564.35 787.952 567.549 787.952C570.749 787.952 573.509 788.638 575.829 790.011C578.163 791.371 579.962 793.279 581.225 795.737C582.489 798.181 583.12 801.037 583.12 804.305C583.12 807.546 582.489 810.395 581.225 812.853C579.962 815.297 578.163 817.206 575.829 818.579C573.509 819.938 570.749 820.618 567.549 820.618ZM567.591 813.821C569.046 813.821 570.261 813.409 571.236 812.585C572.211 811.748 572.946 810.608 573.44 809.166C573.948 807.724 574.202 806.084 574.202 804.244C574.202 802.404 573.948 800.763 573.44 799.321C572.946 797.879 572.211 796.74 571.236 795.902C570.261 795.064 569.046 794.646 567.591 794.646C566.121 794.646 564.886 795.064 563.883 795.902C562.895 796.74 562.146 797.879 561.638 799.321C561.144 800.763 560.897 802.404 560.897 804.244C560.897 806.084 561.144 807.724 561.638 809.166C562.146 810.608 562.895 811.748 563.883 812.585C564.886 813.409 566.121 813.821 567.591 813.821ZM609.113 806.53V788.364H617.887V820H609.463V814.254H609.134C608.42 816.107 607.232 817.597 605.571 818.723C603.923 819.849 601.911 820.412 599.536 820.412C597.421 820.412 595.561 819.931 593.954 818.97C592.348 818.009 591.091 816.643 590.185 814.871C589.292 813.1 588.839 810.979 588.826 808.507V788.364H597.6V806.942C597.614 808.809 598.115 810.285 599.103 811.37C600.092 812.455 601.417 812.997 603.078 812.997C604.136 812.997 605.124 812.757 606.044 812.276C606.964 811.782 607.706 811.054 608.269 810.093C608.846 809.132 609.127 807.944 609.113 806.53ZM620.519 785.171V777.818H655.162V785.171H642.248V820H633.433V785.171H620.519ZM676.686 806.53V788.364H685.46V820H677.036V814.254H676.706C675.992 816.107 674.804 817.597 673.143 818.723C671.495 819.849 669.484 820.412 667.108 820.412C664.994 820.412 663.133 819.931 661.526 818.97C659.92 818.009 658.664 816.643 657.757 814.871C656.865 813.1 656.412 810.979 656.398 808.507V788.364H665.172V806.942C665.186 808.809 665.687 810.285 666.676 811.37C667.664 812.455 668.989 812.997 670.651 812.997C671.708 812.997 672.697 812.757 673.617 812.276C674.537 811.782 675.278 811.054 675.841 810.093C676.418 809.132 676.699 807.944 676.686 806.53ZM692.643 820V777.818H701.417V793.678H701.685C702.069 792.826 702.625 791.961 703.353 791.082C704.094 790.19 705.056 789.448 706.237 788.858C707.431 788.254 708.914 787.952 710.685 787.952C712.992 787.952 715.121 788.556 717.07 789.764C719.02 790.959 720.579 792.764 721.746 795.181C722.913 797.584 723.496 800.598 723.496 804.223C723.496 807.752 722.927 810.732 721.787 813.162C720.661 815.579 719.123 817.412 717.173 818.661C715.237 819.897 713.068 820.515 710.665 820.515C708.962 820.515 707.513 820.233 706.319 819.67C705.138 819.107 704.17 818.4 703.415 817.549C702.66 816.684 702.083 815.812 701.685 814.933H701.293V820H692.643ZM701.232 804.182C701.232 806.063 701.492 807.704 702.014 809.104C702.536 810.505 703.291 811.597 704.28 812.379C705.268 813.148 706.47 813.533 707.884 813.533C709.312 813.533 710.521 813.141 711.509 812.359C712.498 811.562 713.246 810.464 713.754 809.063C714.276 807.649 714.537 806.022 714.537 804.182C714.537 802.356 714.283 800.749 713.775 799.362C713.267 797.975 712.518 796.891 711.53 796.108C710.541 795.325 709.326 794.934 707.884 794.934C706.456 794.934 705.248 795.312 704.259 796.067C703.284 796.822 702.536 797.893 702.014 799.28C701.492 800.667 701.232 802.301 701.232 804.182ZM743.769 820.618C740.514 820.618 737.713 819.959 735.365 818.641C733.031 817.309 731.232 815.428 729.969 812.997C728.706 810.553 728.074 807.663 728.074 804.326C728.074 801.072 728.706 798.216 729.969 795.758C731.232 793.3 733.01 791.384 735.303 790.011C737.61 788.638 740.315 787.952 743.419 787.952C745.506 787.952 747.449 788.288 749.247 788.961C751.06 789.62 752.639 790.616 753.985 791.947C755.344 793.279 756.401 794.955 757.156 796.973C757.912 798.978 758.289 801.326 758.289 804.017V806.427H731.575V800.989H750.03C750.03 799.726 749.755 798.607 749.206 797.632C748.657 796.657 747.895 795.895 746.92 795.346C745.959 794.783 744.84 794.501 743.563 794.501C742.231 794.501 741.05 794.81 740.02 795.428C739.004 796.032 738.208 796.849 737.631 797.879C737.054 798.895 736.759 800.028 736.745 801.278V806.447C736.745 808.013 737.034 809.365 737.61 810.505C738.201 811.645 739.031 812.523 740.102 813.141C741.173 813.759 742.444 814.068 743.913 814.068C744.888 814.068 745.78 813.931 746.59 813.656C747.401 813.382 748.094 812.97 748.671 812.42C749.247 811.871 749.687 811.198 749.989 810.402L758.104 810.938C757.692 812.887 756.847 814.59 755.57 816.045C754.307 817.487 752.673 818.613 750.669 819.423C748.677 820.22 746.378 820.618 743.769 820.618ZM800.487 789.95C800.322 788.288 799.615 786.997 798.365 786.077C797.116 785.157 795.42 784.697 793.278 784.697C791.822 784.697 790.593 784.903 789.591 785.315C788.589 785.714 787.82 786.27 787.284 786.984C786.762 787.698 786.501 788.508 786.501 789.414C786.474 790.169 786.632 790.828 786.975 791.391C787.332 791.954 787.82 792.442 788.438 792.854C789.055 793.252 789.769 793.602 790.58 793.904C791.39 794.192 792.255 794.44 793.175 794.646L796.964 795.552C798.804 795.964 800.493 796.513 802.031 797.2C803.569 797.886 804.901 798.731 806.027 799.733C807.153 800.735 808.025 801.916 808.643 803.276C809.274 804.635 809.597 806.193 809.611 807.951C809.597 810.532 808.938 812.771 807.634 814.665C806.343 816.547 804.475 818.009 802.031 819.053C799.601 820.082 796.669 820.597 793.237 820.597C789.831 820.597 786.865 820.076 784.339 819.032C781.826 817.988 779.862 816.444 778.448 814.398C777.048 812.338 776.313 809.791 776.244 806.756H784.874C784.97 808.171 785.375 809.352 786.089 810.299C786.817 811.233 787.785 811.94 788.994 812.42C790.216 812.887 791.596 813.121 793.134 813.121C794.644 813.121 795.955 812.901 797.067 812.462C798.193 812.022 799.065 811.411 799.683 810.629C800.301 809.846 800.61 808.946 800.61 807.93C800.61 806.983 800.329 806.187 799.766 805.541C799.216 804.896 798.406 804.347 797.335 803.893C796.278 803.44 794.98 803.028 793.442 802.658L788.849 801.504C785.293 800.639 782.485 799.287 780.425 797.447C778.366 795.607 777.343 793.128 777.357 790.011C777.343 787.457 778.022 785.226 779.396 783.317C780.782 781.409 782.684 779.919 785.101 778.848C787.518 777.777 790.264 777.241 793.339 777.241C796.47 777.241 799.203 777.777 801.537 778.848C803.885 779.919 805.711 781.409 807.016 783.317C808.32 785.226 808.993 787.437 809.034 789.95H800.487ZM835.732 806.53V788.364H844.507V820H836.083V814.254H835.753C835.039 816.107 833.851 817.597 832.19 818.723C830.542 819.849 828.53 820.412 826.155 820.412C824.04 820.412 822.18 819.931 820.573 818.97C818.967 818.009 817.71 816.643 816.804 814.871C815.912 813.1 815.459 810.979 815.445 808.507V788.364H824.219V806.942C824.233 808.809 824.734 810.285 825.722 811.37C826.711 812.455 828.036 812.997 829.698 812.997C830.755 812.997 831.744 812.757 832.664 812.276C833.584 811.782 834.325 811.054 834.888 810.093C835.465 809.132 835.746 807.944 835.732 806.53ZM851.525 820V788.364H859.887V793.945H860.258C860.917 792.092 862.015 790.629 863.553 789.558C865.091 788.487 866.931 787.952 869.073 787.952C871.243 787.952 873.089 788.494 874.614 789.579C876.138 790.65 877.154 792.105 877.662 793.945H877.991C878.637 792.133 879.804 790.684 881.493 789.599C883.196 788.501 885.207 787.952 887.528 787.952C890.48 787.952 892.876 788.892 894.716 790.773C896.57 792.641 897.496 795.291 897.496 798.724V820H888.743V800.454C888.743 798.696 888.276 797.378 887.342 796.499C886.409 795.621 885.241 795.181 883.841 795.181C882.248 795.181 881.005 795.689 880.113 796.705C879.22 797.708 878.774 799.033 878.774 800.68V820H870.268V800.268C870.268 798.717 869.821 797.481 868.929 796.561C868.05 795.641 866.89 795.181 865.448 795.181C864.473 795.181 863.594 795.428 862.812 795.923C862.043 796.403 861.432 797.083 860.979 797.962C860.526 798.827 860.299 799.843 860.299 801.01V820H851.525ZM904.427 820V788.364H912.789V793.945H913.16C913.819 792.092 914.918 790.629 916.456 789.558C917.993 788.487 919.833 787.952 921.975 787.952C924.145 787.952 925.992 788.494 927.516 789.579C929.04 790.65 930.056 792.105 930.564 793.945H930.894C931.539 792.133 932.706 790.684 934.395 789.599C936.098 788.501 938.109 787.952 940.43 787.952C943.382 787.952 945.778 788.892 947.618 790.773C949.472 792.641 950.399 795.291 950.399 798.724V820H941.645V800.454C941.645 798.696 941.178 797.378 940.245 796.499C939.311 795.621 938.144 795.181 936.743 795.181C935.15 795.181 933.908 795.689 933.015 796.705C932.123 797.708 931.676 799.033 931.676 800.68V820H923.17V800.268C923.17 798.717 922.724 797.481 921.831 796.561C920.953 795.641 919.792 795.181 918.35 795.181C917.376 795.181 916.497 795.428 915.714 795.923C914.945 796.403 914.334 797.083 913.881 797.962C913.428 798.827 913.201 799.843 913.201 801.01V820H904.427ZM966.351 820.597C964.332 820.597 962.534 820.247 960.955 819.547C959.375 818.833 958.126 817.782 957.206 816.396C956.3 814.995 955.847 813.251 955.847 811.164C955.847 809.406 956.169 807.93 956.815 806.736C957.46 805.541 958.339 804.58 959.451 803.852C960.563 803.125 961.826 802.575 963.241 802.205C964.669 801.834 966.165 801.573 967.731 801.422C969.571 801.23 971.054 801.051 972.18 800.886C973.306 800.708 974.123 800.447 974.631 800.104C975.139 799.76 975.393 799.252 975.393 798.58V798.456C975.393 797.152 974.981 796.142 974.157 795.428C973.347 794.714 972.193 794.357 970.697 794.357C969.118 794.357 967.861 794.707 966.928 795.408C965.994 796.094 965.376 796.959 965.074 798.003L956.959 797.344C957.371 795.421 958.181 793.76 959.389 792.359C960.598 790.945 962.156 789.86 964.065 789.105C965.987 788.336 968.211 787.952 970.738 787.952C972.496 787.952 974.178 788.158 975.784 788.57C977.404 788.982 978.839 789.62 980.089 790.485C981.352 791.35 982.348 792.462 983.075 793.822C983.803 795.167 984.167 796.781 984.167 798.662V820H975.846V815.613H975.599C975.091 816.602 974.411 817.473 973.56 818.229C972.708 818.97 971.685 819.554 970.491 819.979C969.296 820.391 967.916 820.597 966.351 820.597ZM968.864 814.542C970.154 814.542 971.294 814.288 972.283 813.78C973.271 813.258 974.047 812.558 974.61 811.679C975.173 810.8 975.455 809.805 975.455 808.692V805.335C975.18 805.514 974.802 805.679 974.322 805.83C973.855 805.967 973.326 806.097 972.736 806.221C972.145 806.331 971.555 806.434 970.964 806.53C970.374 806.612 969.839 806.688 969.358 806.756C968.328 806.907 967.429 807.148 966.66 807.477C965.891 807.807 965.294 808.253 964.868 808.816C964.442 809.365 964.229 810.052 964.229 810.876C964.229 812.07 964.662 812.983 965.527 813.615C966.406 814.233 967.518 814.542 968.864 814.542ZM990.974 820V788.364H999.48V793.884H999.81C1000.39 791.92 1001.35 790.437 1002.71 789.435C1004.07 788.419 1005.64 787.911 1007.41 787.911C1007.85 787.911 1008.32 787.938 1008.83 787.993C1009.34 788.048 1009.79 788.123 1010.17 788.219V796.005C1009.76 795.881 1009.19 795.772 1008.46 795.675C1007.73 795.579 1007.07 795.531 1006.46 795.531C1005.17 795.531 1004.02 795.813 1003 796.376C1002 796.925 1001.2 797.694 1000.61 798.683C1000.04 799.671 999.748 800.811 999.748 802.102V820H990.974ZM1021.09 831.864C1019.97 831.864 1018.93 831.774 1017.96 831.596C1016.99 831.431 1016.2 831.218 1015.57 830.957L1017.54 824.408C1018.57 824.723 1019.5 824.895 1020.32 824.923C1021.16 824.95 1021.88 824.758 1022.49 824.346C1023.1 823.934 1023.61 823.234 1023.99 822.245L1024.51 820.906L1013.16 788.364H1022.38L1028.93 811.597H1029.26L1035.87 788.364H1045.16L1032.87 823.419C1032.28 825.122 1031.47 826.605 1030.46 827.868C1029.46 829.145 1028.19 830.127 1026.65 830.813C1025.11 831.513 1023.26 831.864 1021.09 831.864ZM1083.37 806.53V788.364H1092.14V820H1083.72V814.254H1083.39C1082.67 816.107 1081.48 817.597 1079.82 818.723C1078.17 819.849 1076.16 820.412 1073.79 820.412C1071.67 820.412 1069.81 819.931 1068.21 818.97C1066.6 818.009 1065.34 816.643 1064.44 814.871C1063.54 813.1 1063.09 810.979 1063.08 808.507V788.364H1071.85V806.942C1071.87 808.809 1072.37 810.285 1073.36 811.37C1074.34 812.455 1075.67 812.997 1077.33 812.997C1078.39 812.997 1079.38 812.757 1080.3 812.276C1081.22 811.782 1081.96 811.054 1082.52 810.093C1083.1 809.132 1083.38 807.944 1083.37 806.53ZM1125.48 797.385L1117.45 797.879C1117.31 797.193 1117.01 796.575 1116.56 796.026C1116.11 795.463 1115.51 795.016 1114.77 794.687C1114.04 794.344 1113.17 794.172 1112.15 794.172C1110.79 794.172 1109.65 794.46 1108.71 795.037C1107.78 795.6 1107.31 796.355 1107.31 797.303C1107.31 798.058 1107.62 798.696 1108.22 799.218C1108.82 799.74 1109.86 800.159 1111.33 800.474L1117.06 801.628C1120.13 802.259 1122.42 803.276 1123.94 804.676C1125.45 806.077 1126.2 807.917 1126.2 810.196C1126.2 812.269 1125.59 814.089 1124.37 815.654C1123.16 817.219 1121.5 818.442 1119.38 819.32C1117.28 820.185 1114.86 820.618 1112.11 820.618C1107.92 820.618 1104.59 819.746 1102.1 818.002C1099.63 816.245 1098.18 813.855 1097.76 810.835L1106.39 810.381C1106.65 811.658 1107.28 812.633 1108.28 813.306C1109.28 813.965 1110.57 814.295 1112.13 814.295C1113.67 814.295 1114.91 814 1115.84 813.409C1116.79 812.805 1117.27 812.029 1117.28 811.082C1117.27 810.285 1116.93 809.633 1116.27 809.125C1115.61 808.603 1114.6 808.205 1113.23 807.93L1107.75 806.839C1104.66 806.221 1102.36 805.15 1100.85 803.626C1099.35 802.102 1098.6 800.159 1098.6 797.797C1098.6 795.765 1099.15 794.014 1100.25 792.545C1101.36 791.076 1102.92 789.943 1104.92 789.146C1106.94 788.35 1109.3 787.952 1112.01 787.952C1116.01 787.952 1119.15 788.796 1121.44 790.485C1123.75 792.174 1125.1 794.474 1125.48 797.385ZM1131.73 820V788.364H1140.5V820H1131.73ZM1136.13 784.286C1134.83 784.286 1133.71 783.853 1132.78 782.988C1131.86 782.109 1131.4 781.059 1131.4 779.837C1131.4 778.628 1131.86 777.592 1132.78 776.727C1133.71 775.848 1134.83 775.408 1136.13 775.408C1137.44 775.408 1138.55 775.848 1139.47 776.727C1140.4 777.592 1140.87 778.628 1140.87 779.837C1140.87 781.059 1140.4 782.109 1139.47 782.988C1138.55 783.853 1137.44 784.286 1136.13 784.286ZM1156.3 801.71V820H1147.53V788.364H1155.89V793.945H1156.26C1156.96 792.105 1158.14 790.65 1159.78 789.579C1161.43 788.494 1163.43 787.952 1165.78 787.952C1167.97 787.952 1169.89 788.432 1171.52 789.393C1173.16 790.355 1174.43 791.728 1175.33 793.513C1176.24 795.284 1176.69 797.399 1176.69 799.857V820H1167.92V801.422C1167.93 799.486 1167.44 797.975 1166.44 796.891C1165.43 795.792 1164.05 795.243 1162.3 795.243C1161.12 795.243 1160.07 795.497 1159.17 796.005C1158.27 796.513 1157.57 797.254 1157.06 798.229C1156.57 799.191 1156.32 800.351 1156.3 801.71ZM1197.86 832.523C1195.02 832.523 1192.58 832.131 1190.55 831.349C1188.53 830.58 1186.92 829.529 1185.73 828.197C1184.54 826.866 1183.76 825.369 1183.4 823.707L1191.52 822.616C1191.77 823.247 1192.16 823.838 1192.69 824.387C1193.23 824.936 1193.93 825.376 1194.81 825.705C1195.71 826.049 1196.79 826.22 1198.07 826.22C1199.98 826.22 1201.55 825.753 1202.78 824.82C1204.03 823.9 1204.66 822.355 1204.66 820.185V814.398H1204.29C1203.9 815.277 1203.33 816.107 1202.56 816.89C1201.79 817.673 1200.8 818.311 1199.59 818.805C1198.38 819.3 1196.94 819.547 1195.27 819.547C1192.89 819.547 1190.73 818.998 1188.78 817.899C1186.84 816.787 1185.3 815.091 1184.14 812.812C1183 810.519 1182.43 807.621 1182.43 804.12C1182.43 800.536 1183.02 797.543 1184.19 795.14C1185.35 792.737 1186.9 790.938 1188.84 789.744C1190.79 788.549 1192.93 787.952 1195.25 787.952C1197.02 787.952 1198.5 788.254 1199.69 788.858C1200.89 789.448 1201.85 790.19 1202.58 791.082C1203.32 791.961 1203.89 792.826 1204.29 793.678H1204.62V788.364H1213.33V820.309C1213.33 823 1212.67 825.252 1211.35 827.065C1210.03 828.877 1208.21 830.237 1205.87 831.143C1203.55 832.063 1200.88 832.523 1197.86 832.523ZM1198.05 812.956C1199.46 812.956 1200.66 812.606 1201.63 811.906C1202.62 811.192 1203.37 810.175 1203.9 808.857C1204.43 807.525 1204.7 805.933 1204.7 804.079C1204.7 802.225 1204.44 800.619 1203.92 799.259C1203.4 797.886 1202.64 796.822 1201.65 796.067C1200.66 795.312 1199.46 794.934 1198.05 794.934C1196.61 794.934 1195.39 795.325 1194.4 796.108C1193.41 796.877 1192.66 797.948 1192.16 799.321C1191.65 800.694 1191.39 802.28 1191.39 804.079C1191.39 805.905 1191.65 807.484 1192.16 808.816C1192.68 810.134 1193.43 811.157 1194.4 811.885C1195.39 812.599 1196.61 812.956 1198.05 812.956ZM1271.12 792.586H1262.1C1261.93 791.419 1261.6 790.382 1261.09 789.476C1260.58 788.556 1259.93 787.773 1259.13 787.128C1258.33 786.482 1257.42 785.988 1256.37 785.645C1255.34 785.302 1254.22 785.13 1253.01 785.13C1250.83 785.13 1248.93 785.672 1247.31 786.757C1245.69 787.828 1244.43 789.393 1243.54 791.453C1242.65 793.499 1242.2 795.984 1242.2 798.909C1242.2 801.916 1242.65 804.443 1243.54 806.489C1244.45 808.535 1245.71 810.079 1247.33 811.123C1248.95 812.166 1250.82 812.688 1252.95 812.688C1254.15 812.688 1255.25 812.53 1256.27 812.214C1257.3 811.899 1258.21 811.439 1259.01 810.835C1259.8 810.217 1260.46 809.468 1260.99 808.589C1261.52 807.711 1261.89 806.708 1262.1 805.582L1271.12 805.624C1270.89 807.56 1270.3 809.427 1269.37 811.226C1268.45 813.011 1267.21 814.611 1265.64 816.025C1264.09 817.425 1262.23 818.538 1260.08 819.362C1257.94 820.172 1255.51 820.577 1252.81 820.577C1249.05 820.577 1245.68 819.725 1242.72 818.023C1239.76 816.32 1237.43 813.855 1235.71 810.629C1234.01 807.402 1233.16 803.495 1233.16 798.909C1233.16 794.309 1234.02 790.396 1235.75 787.169C1237.48 783.942 1239.83 781.484 1242.8 779.795C1245.76 778.093 1249.1 777.241 1252.81 777.241C1255.25 777.241 1257.52 777.585 1259.61 778.271C1261.71 778.958 1263.57 779.96 1265.19 781.278C1266.81 782.583 1268.13 784.183 1269.14 786.077C1270.17 787.972 1270.83 790.142 1271.12 792.586ZM1286.12 801.71V820H1277.35V777.818H1285.88V793.945H1286.25C1286.96 792.078 1288.11 790.616 1289.71 789.558C1291.3 788.487 1293.3 787.952 1295.7 787.952C1297.9 787.952 1299.81 788.432 1301.45 789.393C1303.09 790.341 1304.37 791.707 1305.28 793.492C1306.2 795.263 1306.65 797.385 1306.64 799.857V820H1297.86V801.422C1297.88 799.472 1297.38 797.955 1296.38 796.87C1295.39 795.785 1294 795.243 1292.22 795.243C1291.03 795.243 1289.97 795.497 1289.05 796.005C1288.14 796.513 1287.43 797.254 1286.91 798.229C1286.4 799.191 1286.14 800.351 1286.12 801.71ZM1322.56 820.597C1320.55 820.597 1318.75 820.247 1317.17 819.547C1315.59 818.833 1314.34 817.782 1313.42 816.396C1312.51 814.995 1312.06 813.251 1312.06 811.164C1312.06 809.406 1312.38 807.93 1313.03 806.736C1313.67 805.541 1314.55 804.58 1315.66 803.852C1316.78 803.125 1318.04 802.575 1319.45 802.205C1320.88 801.834 1322.38 801.573 1323.94 801.422C1325.78 801.23 1327.27 801.051 1328.39 800.886C1329.52 800.708 1330.34 800.447 1330.84 800.104C1331.35 799.76 1331.61 799.252 1331.61 798.58V798.456C1331.61 797.152 1331.19 796.142 1330.37 795.428C1329.56 794.714 1328.41 794.357 1326.91 794.357C1325.33 794.357 1324.07 794.707 1323.14 795.408C1322.21 796.094 1321.59 796.959 1321.29 798.003L1313.17 797.344C1313.58 795.421 1314.39 793.76 1315.6 792.359C1316.81 790.945 1318.37 789.86 1320.28 789.105C1322.2 788.336 1324.42 787.952 1326.95 787.952C1328.71 787.952 1330.39 788.158 1332 788.57C1333.62 788.982 1335.05 789.62 1336.3 790.485C1337.56 791.35 1338.56 792.462 1339.29 793.822C1340.02 795.167 1340.38 796.781 1340.38 798.662V820H1332.06V815.613H1331.81C1331.3 816.602 1330.62 817.473 1329.77 818.229C1328.92 818.97 1327.9 819.554 1326.7 819.979C1325.51 820.391 1324.13 820.597 1322.56 820.597ZM1325.08 814.542C1326.37 814.542 1327.51 814.288 1328.5 813.78C1329.48 813.258 1330.26 812.558 1330.82 811.679C1331.39 810.8 1331.67 809.805 1331.67 808.692V805.335C1331.39 805.514 1331.02 805.679 1330.53 805.83C1330.07 805.967 1329.54 806.097 1328.95 806.221C1328.36 806.331 1327.77 806.434 1327.18 806.53C1326.59 806.612 1326.05 806.688 1325.57 806.756C1324.54 806.907 1323.64 807.148 1322.87 807.477C1322.1 807.807 1321.51 808.253 1321.08 808.816C1320.66 809.365 1320.44 810.052 1320.44 810.876C1320.44 812.07 1320.87 812.983 1321.74 813.615C1322.62 814.233 1323.73 814.542 1325.08 814.542ZM1364.01 788.364V794.955H1344.96V788.364H1364.01ZM1349.29 780.784H1358.06V810.278C1358.06 811.089 1358.19 811.72 1358.43 812.173C1358.68 812.613 1359.02 812.922 1359.46 813.1C1359.92 813.279 1360.44 813.368 1361.03 813.368C1361.44 813.368 1361.85 813.334 1362.26 813.265C1362.68 813.183 1362.99 813.121 1363.21 813.08L1364.59 819.609C1364.15 819.746 1363.53 819.904 1362.74 820.082C1361.94 820.275 1360.97 820.391 1359.83 820.433C1357.72 820.515 1355.86 820.233 1354.27 819.588C1352.69 818.943 1351.46 817.94 1350.59 816.581C1349.71 815.222 1349.27 813.505 1349.29 811.432V780.784ZM1397.86 791.453C1397.58 790.451 1397.17 789.565 1396.65 788.796C1396.13 788.013 1395.49 787.354 1394.73 786.819C1393.99 786.27 1393.14 785.851 1392.18 785.562C1391.23 785.274 1390.18 785.13 1389.03 785.13C1386.87 785.13 1384.98 785.665 1383.34 786.737C1381.72 787.808 1380.46 789.366 1379.55 791.412C1378.65 793.444 1378.2 795.929 1378.2 798.868C1378.2 801.806 1378.64 804.305 1379.53 806.365C1380.43 808.425 1381.69 809.997 1383.32 811.082C1384.96 812.153 1386.89 812.688 1389.11 812.688C1391.13 812.688 1392.85 812.331 1394.28 811.617C1395.72 810.889 1396.82 809.866 1397.58 808.548C1398.35 807.23 1398.73 805.672 1398.73 803.873L1400.54 804.141H1389.67V797.426H1407.32V802.74C1407.32 806.447 1406.54 809.633 1404.97 812.297C1403.41 814.947 1401.25 816.993 1398.5 818.435C1395.76 819.863 1392.61 820.577 1389.07 820.577C1385.12 820.577 1381.64 819.705 1378.65 817.961C1375.65 816.203 1373.32 813.711 1371.65 810.484C1369.98 807.244 1369.15 803.399 1369.15 798.95C1369.15 795.531 1369.65 792.483 1370.64 789.805C1371.64 787.114 1373.04 784.835 1374.84 782.967C1376.64 781.1 1378.73 779.679 1381.12 778.704C1383.51 777.729 1386.1 777.241 1388.88 777.241C1391.27 777.241 1393.5 777.592 1395.56 778.292C1397.62 778.978 1399.44 779.953 1401.04 781.217C1402.64 782.48 1403.95 783.983 1404.97 785.727C1405.99 787.457 1406.64 789.366 1406.93 791.453H1397.86ZM1414.02 820V777.818H1430.66C1433.86 777.818 1436.58 778.429 1438.84 779.651C1441.09 780.86 1442.8 782.542 1443.99 784.697C1445.18 786.839 1445.78 789.311 1445.78 792.112C1445.78 794.913 1445.17 797.385 1443.97 799.527C1442.76 801.669 1441.01 803.337 1438.71 804.532C1436.43 805.727 1433.67 806.324 1430.43 806.324H1419.83V799.177H1428.99C1430.71 799.177 1432.12 798.882 1433.23 798.291C1434.36 797.687 1435.2 796.856 1435.75 795.799C1436.31 794.728 1436.59 793.499 1436.59 792.112C1436.59 790.712 1436.31 789.49 1435.75 788.446C1435.2 787.389 1434.36 786.572 1433.23 785.995C1432.11 785.405 1430.68 785.109 1428.95 785.109H1422.94V820H1414.02ZM1449.96 785.171V777.818H1484.61V785.171H1471.69V820H1462.88V785.171H1449.96Z" fill="white"/>
</g>
<defs>
<filter id="filter0_f_3302_520" x="1292" y="-568" width="1136" height="1136" filterUnits="userSpaceOnUse" color-interpolation-filters="sRGB">
<feFlood flood-opacity="0" result="BackgroundImageFix"/>
<feBlend mode="normal" in="SourceGraphic" in2="BackgroundImageFix" result="shape"/>
<feGaussianBlur stdDeviation="67" result="effect1_foregroundBlur_3302_520"/>
</filter>
<linearGradient id="paint0_linear_3302_520" x1="1463.28" y1="-374.819" x2="2456.39" y2="-18.1311" gradientUnits="userSpaceOnUse">
<stop stop-color="#FF4694"/>
<stop offset="0.982229" stop-color="#FF4694" stop-opacity="0"/>
</linearGradient>
<linearGradient id="paint1_linear_3302_520" x1="1831.16" y1="824.795" x2="1892.46" y2="854.318" gradientUnits="userSpaceOnUse">
<stop stop-color="#5F62E9"/>
<stop offset="1" stop-color="#9C5FE9"/>
</linearGradient>
<linearGradient id="paint2_linear_3302_520" x1="790.342" y1="509.258" x2="790.342" y2="961.855" gradientUnits="userSpaceOnUse">
<stop stop-color="#EBEBEB"/>
<stop offset="1" stop-color="#DEDEDE" stop-opacity="0"/>
</linearGradient>
<linearGradient id="paint3_linear_3302_520" x1="790.342" y1="559.266" x2="790.342" y2="1011.86" gradientUnits="userSpaceOnUse">
<stop stop-color="#EBEBEB"/>
<stop offset="1" stop-color="#DEDEDE" stop-opacity="0"/>
</linearGradient>
<linearGradient id="paint4_linear_3302_520" x1="790.342" y1="609.27" x2="790.342" y2="1061.87" gradientUnits="userSpaceOnUse">
<stop stop-color="#EBEBEB"/>
<stop offset="1" stop-color="#DEDEDE" stop-opacity="0"/>
</linearGradient>
<linearGradient id="paint5_linear_3302_520" x1="790.342" y1="659.277" x2="790.342" y2="934.56" gradientUnits="userSpaceOnUse">
<stop stop-color="#EBEBEB"/>
<stop offset="1" stop-color="#DEDEDE" stop-opacity="0"/>
</linearGradient>
<clipPath id="clip0_3302_520">
<rect width="2000" height="1000" fill="white"/>
</clipPath>
</defs>
</svg>
